<?xml version="1.0" standalone="no"?>
<!DOCTYPE svg PUBLIC "-//W3C//DTD SVG 20010904//EN"
 "http://www.w3.org/TR/2001/REC-SVG-20010904/DTD/svg10.dtd">
<svg version="1.0" xmlns="http://www.w3.org/2000/svg"
 width="602.000000pt" height="484.000000pt" viewBox="0 0 602.000000 484.000000"
 preserveAspectRatio="xMidYMid meet">

<g transform="translate(0.000000,484.000000) scale(0.100000,-0.100000)"
fill="#000000" stroke="none">
<path d="M2690 3068 l0 -373 -310 -395 c-170 -217 -309 -399 -310 -404 0 -5
129 -7 307 -5 l307 4 -3 -179 c-2 -141 0 -180 11 -187 7 -5 189 -9 405 -9
l391 0 151 287 c140 269 148 289 129 296 -11 4 -190 6 -397 5 l-376 -3 0 -105
0 -105 222 -3 223 -2 -37 -75 -37 -75 -233 0 -233 0 -2 354 -3 355 -102 -122
c-98 -117 -102 -124 -103 -169 l0 -48 -96 0 c-74 0 -93 3 -87 13 5 9 932 1223
996 1305 7 9 -74 12 -402 12 l-411 0 0 -372z m388 154 c-7 -19 -164 -220 -178
-229 -13 -9 -15 4 -12 101 2 61 5 117 7 124 3 8 32 12 96 12 50 0 89 -4 87 -8z"/>
</g>
</svg>
